<mxfile host="app.diagrams.net" modified="2022-01-20T11:50:18.212Z" agent="5.0 (Macintosh; Intel Mac OS X 10_15_7) AppleWebKit/537.36 (KHTML, like Gecko) Chrome/97.0.4692.71 Safari/537.36" etag="LilWie7SqrhD8Wq4fgoA" version="15.3.6" type="github">
  <diagram id="c_trV1lx31NJqZyQcUCJ" name="Page-1">
    <mxGraphModel dx="1298" dy="784" grid="1" gridSize="10" guides="1" tooltips="1" connect="1" arrows="1" fold="1" page="1" pageScale="1" pageWidth="827" pageHeight="1169" math="0" shadow="0">
      <root>
        <mxCell id="0" />
        <mxCell id="1" parent="0" />
        <mxCell id="e5tN3aKuKbPqUO9gM_UI-1" value="webhook" style="rounded=1;whiteSpace=wrap;html=1;hachureGap=4;pointerEvents=0;" vertex="1" parent="1">
          <mxGeometry x="70" y="50" width="120" height="60" as="geometry" />
        </mxCell>
        <mxCell id="e5tN3aKuKbPqUO9gM_UI-2" value="validatestatus(body.data.trackingEvents)" style="rounded=1;whiteSpace=wrap;html=1;hachureGap=4;pointerEvents=0;" vertex="1" parent="1">
          <mxGeometry x="260" y="50" width="230" height="60" as="geometry" />
        </mxCell>
        <mxCell id="e5tN3aKuKbPqUO9gM_UI-4" value="validate duplicate status" style="rounded=1;whiteSpace=wrap;html=1;hachureGap=4;pointerEvents=0;" vertex="1" parent="1">
          <mxGeometry x="560" y="50" width="230" height="60" as="geometry" />
        </mxCell>
        <mxCell id="e5tN3aKuKbPqUO9gM_UI-5" value="validate null/empty/undefined statuses" style="rounded=1;whiteSpace=wrap;html=1;hachureGap=4;pointerEvents=0;" vertex="1" parent="1">
          <mxGeometry x="560" y="180" width="230" height="60" as="geometry" />
        </mxCell>
        <mxCell id="e5tN3aKuKbPqUO9gM_UI-6" value="arrange status based on eventdate and eventhour asc" style="rounded=1;whiteSpace=wrap;html=1;hachureGap=4;pointerEvents=0;" vertex="1" parent="1">
          <mxGeometry x="560" y="330" width="230" height="60" as="geometry" />
        </mxCell>
        <mxCell id="e5tN3aKuKbPqUO9gM_UI-7" value="Check description with raw status mapping cache / api response" style="rounded=1;whiteSpace=wrap;html=1;hachureGap=4;pointerEvents=0;" vertex="1" parent="1">
          <mxGeometry x="560" y="440" width="220" height="60" as="geometry" />
        </mxCell>
        <mxCell id="e5tN3aKuKbPqUO9gM_UI-8" value="" style="endArrow=classic;html=1;startSize=14;endSize=14;sourcePerimeterSpacing=8;targetPerimeterSpacing=8;exitX=1;exitY=0.5;exitDx=0;exitDy=0;entryX=0;entryY=0.5;entryDx=0;entryDy=0;" edge="1" parent="1" source="e5tN3aKuKbPqUO9gM_UI-1" target="e5tN3aKuKbPqUO9gM_UI-2">
          <mxGeometry width="50" height="50" relative="1" as="geometry">
            <mxPoint x="390" y="440" as="sourcePoint" />
            <mxPoint x="260" y="160" as="targetPoint" />
          </mxGeometry>
        </mxCell>
        <mxCell id="e5tN3aKuKbPqUO9gM_UI-9" value="" style="endArrow=classic;html=1;startSize=14;endSize=14;sourcePerimeterSpacing=8;targetPerimeterSpacing=8;exitX=1;exitY=0.5;exitDx=0;exitDy=0;" edge="1" parent="1" source="e5tN3aKuKbPqUO9gM_UI-2">
          <mxGeometry width="50" height="50" relative="1" as="geometry">
            <mxPoint x="440" y="120" as="sourcePoint" />
            <mxPoint x="560" y="80" as="targetPoint" />
          </mxGeometry>
        </mxCell>
        <mxCell id="e5tN3aKuKbPqUO9gM_UI-10" value="" style="endArrow=classic;html=1;startSize=14;endSize=14;sourcePerimeterSpacing=8;targetPerimeterSpacing=8;exitX=0.5;exitY=1;exitDx=0;exitDy=0;entryX=0.5;entryY=0;entryDx=0;entryDy=0;" edge="1" parent="1" source="e5tN3aKuKbPqUO9gM_UI-4" target="e5tN3aKuKbPqUO9gM_UI-5">
          <mxGeometry width="50" height="50" relative="1" as="geometry">
            <mxPoint x="390" y="440" as="sourcePoint" />
            <mxPoint x="440" y="390" as="targetPoint" />
          </mxGeometry>
        </mxCell>
        <mxCell id="e5tN3aKuKbPqUO9gM_UI-11" value="" style="endArrow=classic;html=1;startSize=14;endSize=14;sourcePerimeterSpacing=8;targetPerimeterSpacing=8;exitX=0.47;exitY=0.983;exitDx=0;exitDy=0;exitPerimeter=0;" edge="1" parent="1" source="e5tN3aKuKbPqUO9gM_UI-5" target="e5tN3aKuKbPqUO9gM_UI-6">
          <mxGeometry width="50" height="50" relative="1" as="geometry">
            <mxPoint x="390" y="440" as="sourcePoint" />
            <mxPoint x="440" y="390" as="targetPoint" />
          </mxGeometry>
        </mxCell>
        <mxCell id="e5tN3aKuKbPqUO9gM_UI-12" value="" style="endArrow=classic;html=1;startSize=14;endSize=14;sourcePerimeterSpacing=8;targetPerimeterSpacing=8;entryX=0.5;entryY=0;entryDx=0;entryDy=0;" edge="1" parent="1" target="e5tN3aKuKbPqUO9gM_UI-7">
          <mxGeometry width="50" height="50" relative="1" as="geometry">
            <mxPoint x="670" y="390" as="sourcePoint" />
            <mxPoint x="440" y="390" as="targetPoint" />
          </mxGeometry>
        </mxCell>
        <mxCell id="e5tN3aKuKbPqUO9gM_UI-15" style="edgeStyle=none;curved=1;rounded=0;orthogonalLoop=1;jettySize=auto;html=1;endArrow=open;startSize=14;endSize=14;sourcePerimeterSpacing=8;targetPerimeterSpacing=8;" edge="1" parent="1" source="e5tN3aKuKbPqUO9gM_UI-13">
          <mxGeometry relative="1" as="geometry">
            <mxPoint x="540" y="585" as="targetPoint" />
          </mxGeometry>
        </mxCell>
        <mxCell id="e5tN3aKuKbPqUO9gM_UI-16" value="Yes" style="edgeLabel;html=1;align=center;verticalAlign=middle;resizable=0;points=[];" vertex="1" connectable="0" parent="e5tN3aKuKbPqUO9gM_UI-15">
          <mxGeometry x="0.2195" y="-2" relative="1" as="geometry">
            <mxPoint as="offset" />
          </mxGeometry>
        </mxCell>
        <mxCell id="e5tN3aKuKbPqUO9gM_UI-18" value="" style="edgeStyle=none;curved=1;rounded=0;orthogonalLoop=1;jettySize=auto;html=1;endArrow=open;startSize=14;endSize=14;sourcePerimeterSpacing=8;targetPerimeterSpacing=8;" edge="1" parent="1" source="e5tN3aKuKbPqUO9gM_UI-13">
          <mxGeometry relative="1" as="geometry">
            <mxPoint x="670" y="702" as="targetPoint" />
          </mxGeometry>
        </mxCell>
        <mxCell id="e5tN3aKuKbPqUO9gM_UI-19" value="No" style="edgeLabel;html=1;align=center;verticalAlign=middle;resizable=0;points=[];" vertex="1" connectable="0" parent="e5tN3aKuKbPqUO9gM_UI-18">
          <mxGeometry x="-0.5937" relative="1" as="geometry">
            <mxPoint as="offset" />
          </mxGeometry>
        </mxCell>
        <mxCell id="e5tN3aKuKbPqUO9gM_UI-13" value="yes / no" style="rhombus;whiteSpace=wrap;html=1;hachureGap=4;pointerEvents=0;" vertex="1" parent="1">
          <mxGeometry x="630" y="545" width="80" height="85" as="geometry" />
        </mxCell>
        <mxCell id="e5tN3aKuKbPqUO9gM_UI-14" value="" style="endArrow=classic;html=1;startSize=14;endSize=14;sourcePerimeterSpacing=8;targetPerimeterSpacing=8;exitX=0.5;exitY=1;exitDx=0;exitDy=0;entryX=0.5;entryY=0;entryDx=0;entryDy=0;" edge="1" parent="1" source="e5tN3aKuKbPqUO9gM_UI-7" target="e5tN3aKuKbPqUO9gM_UI-13">
          <mxGeometry width="50" height="50" relative="1" as="geometry">
            <mxPoint x="390" y="440" as="sourcePoint" />
            <mxPoint x="660" y="530" as="targetPoint" />
          </mxGeometry>
        </mxCell>
        <mxCell id="e5tN3aKuKbPqUO9gM_UI-20" value="show errors" style="rounded=0;whiteSpace=wrap;html=1;hachureGap=4;pointerEvents=0;" vertex="1" parent="1">
          <mxGeometry x="610" y="700" width="120" height="60" as="geometry" />
        </mxCell>
        <mxCell id="e5tN3aKuKbPqUO9gM_UI-21" value="continue webhook execution" style="rounded=1;whiteSpace=wrap;html=1;hachureGap=4;pointerEvents=0;" vertex="1" parent="1">
          <mxGeometry x="414" y="555" width="120" height="60" as="geometry" />
        </mxCell>
      </root>
    </mxGraphModel>
  </diagram>
</mxfile>
